<svg id="Layer_1" enable-background="new 0 0 512 512" height="512" viewBox="0 0 512 512" width="512" xmlns="http://www.w3.org/2000/svg"><path d="m412 504.5h-282c-7.732 0-14-6.268-14-14v-439c0-7.732 6.268-14 14-14h282c7.732 0 14 6.268 14 14v439c0 7.732-6.268 14-14 14z" fill="#c9c9c9"/><path d="m382 474.5h-282c-7.732 0-14-6.268-14-14v-439c0-7.732 6.268-14 14-14h282c7.732 0 14 6.268 14 14v439c0 7.732-6.268 14-14 14z" fill="#f1f1f1"/><path d="m382 7.5h-30c7.732 0 14 6.268 14 14v439c0 7.732-6.268 14-14 14h30c7.732 0 14-6.268 14-14v-439c0-7.732-6.268-14-14-14z" fill="#dfdfdf"/><path d="m300.508 247.03c-.311-11.178-46.96-60.183-62.199-79.603-.614-.782-1.787-.782-2.401 0-15.247 19.438-61.908 68.464-62.2 79.642-.49 17.91 13.89 32.58 31.69 32.58 6.56 0 12.65-1.99 17.7-5.4.73-.49 1.68.12 1.55.99-2.52 15.79-7.97 25.94-12.64 32.05-2.46 3.22-.17 7.87 3.89 7.87h42.43c4.06 0 6.35-4.65 3.88-7.87-4.67-6.11-10.12-16.25-12.63-32.05-.14-.87.82-1.48 1.55-.99 5.05 3.41 11.13 5.4 17.69 5.4 17.81.001 32.2-14.689 31.69-32.619z" fill="#356c8e"/><path d="m426 455.371c4.143 0 7.5-3.357 7.5-7.5v-396.371c0-11.855-9.645-21.5-21.5-21.5h-8.5v-8.5c0-11.855-9.645-21.5-21.5-21.5h-30.131c-4.143 0-7.5 3.357-7.5 7.5s3.357 7.5 7.5 7.5h30.131c3.584 0 6.5 2.916 6.5 6.5v439c0 3.584-2.916 6.5-6.5 6.5h-282c-3.584 0-6.5-2.916-6.5-6.5v-364.257c0-4.143-3.357-7.5-7.5-7.5s-7.5 3.357-7.5 7.5v364.257c0 11.855 9.645 21.5 21.5 21.5h8.5v8.5c0 11.855 9.645 21.5 21.5 21.5h282c11.855 0 21.5-9.645 21.5-21.5v-10.257c0-4.143-3.357-7.5-7.5-7.5s-7.5 3.357-7.5 7.5v10.257c0 3.584-2.916 6.5-6.5 6.5h-282c-3.584 0-6.5-2.916-6.5-6.5v-8.5h258.5c11.855 0 21.5-9.645 21.5-21.5v-415.5h8.5c3.584 0 6.5 2.916 6.5 6.5v396.371c0 4.143 3.357 7.5 7.5 7.5z"/><path d="m86 71.371c4.143 0 7.5-3.357 7.5-7.5v-42.371c0-3.584 2.916-6.5 6.5-6.5h220.056c4.143 0 7.5-3.357 7.5-7.5s-3.357-7.5-7.5-7.5h-220.056c-11.855 0-21.5 9.645-21.5 21.5v42.371c0 4.143 3.357 7.5 7.5 7.5z"/><path d="m244.207 162.795c-3.612-4.603-10.585-4.612-14.2.004-17.934 22.861-63.403 68.988-63.796 84.065-.292 10.679 3.645 20.771 11.085 28.418 7.445 7.652 17.426 11.867 28.103 11.867 3.062 0 6.08-.352 9.008-1.039-2.509 7.813-5.726 13.181-8.358 16.626-6.23 8.157-.412 19.923 9.851 19.923h42.43c10.264 0 16.085-11.779 9.839-19.925-2.634-3.445-5.849-8.812-8.354-16.626 2.928.689 5.946 1.041 9.006 1.041 10.683 0 20.668-4.22 28.115-11.883 7.442-7.656 11.374-17.758 11.071-28.445-.422-15.095-45.801-61.092-63.8-84.026zm41.971 102.018c-4.599 4.731-10.764 7.337-17.359 7.337-4.84 0-9.506-1.423-13.507-4.124-6.156-4.138-14.316 1.069-13.141 8.391 2.282 14.365 6.905 24.515 11.169 31.243h-32.464c4.26-6.722 8.887-16.883 11.19-31.313 1.088-7.283-7-12.45-13.165-8.313-3.988 2.692-8.657 4.115-13.503 4.115-6.592 0-12.754-2.603-17.353-7.328-4.539-4.665-6.965-10.808-6.846-17.328 2.185-9.261 41.726-52.678 55.909-69.659 14.219 17.015 53.721 60.38 55.907 69.629.13 6.522-2.294 12.676-6.837 17.35z"/><path d="m170.017 96.471-20.996-55.635c-.026-.069-.054-.139-.082-.207-1.361-3.304-4.546-5.438-8.118-5.438h-.01c-3.576.005-6.761 2.146-8.115 5.455-.023.057-.046.113-.067.171l-21.189 55.633c-1.474 3.87.468 8.203 4.339 9.678 3.855 1.469 8.199-.454 9.678-4.34l3.437-9.024h23.69l3.398 9.004c1.462 3.874 5.788 5.831 9.665 4.368 3.876-1.462 5.832-5.789 4.37-9.665zm-35.409-18.707 6.186-16.243 6.13 16.243z"/><path d="m316.331 447.311c3.84 1.465 8.193-.441 9.678-4.34l3.437-9.024h23.69l3.398 9.004c1.462 3.875 5.792 5.832 9.665 4.368 3.875-1.462 5.831-5.789 4.368-9.665l-20.996-55.636c-.025-.067-.052-.135-.079-.202-1.359-3.307-4.545-5.441-8.119-5.441h-.009c-3.578.003-6.765 2.146-8.118 5.458-.023.056-.045.111-.066.168l-21.188 55.633c-1.475 3.869.468 8.202 4.339 9.677zm25.015-44.608 6.13 16.243h-12.317z"/></svg>