<svg height="512" viewBox="0 0 60 60" width="512" xmlns="http://www.w3.org/2000/svg"><g id="Page-1" fill="none" fill-rule="evenodd"><g id="087---Gambling-Income" fill-rule="nonzero"><g id="Icons" transform="translate(1 1)"><path id="Shape" d="m32 45c-.0033496 4.2567746 2.0819774 8.2443085 5.58 10.67-.4983732.2174708-1.0362451.3298111-1.58.33h-26c-2.209139 0-4-1.790861-4-4v-42c0-2.209139 1.790861-4 4-4h26c2.209139 0 4 1.790861 4 4v23c-4.8454832 2.0172008-8.0016159 6.7513998-8 12z" fill="#f5f5f5"/><path id="Shape" d="m40 33v-23c0-2.209139-1.790861-4-4-4h-3c2.209139 0 4 1.790861 4 4v23c-4.3815926 1.8273733-7.4186529 5.8978769-7.9225683 10.61844-.5039155 4.7205631 1.6054551 9.3404431 5.5025683 12.05156-.4983732.2174708-1.0362451.3298111-1.58.33h3c.5437549-.0001889 1.0816268-.1125292 1.58-.33-3.8971132-2.7111169-6.0064838-7.3309969-5.5025683-12.05156.5039154-4.7205631 3.5409757-8.7910667 7.9225683-10.61844z" fill="#cfd8dc"/><path id="Shape" d="m34 4v2h-24c-2.209139 0-4 1.790861-4 4v40h-2c-2.209139 0-4-1.790861-4-4v-42c0-2.209139 1.790861-4 4-4h26c2.209139 0 4 1.790861 4 4z" fill="#cfd8dc"/><g fill="#ef314c"><path id="Shape" d="m23 25.305s1.536-3.305 5-3.305c2.96 0 5 2.632 5 5.749 0 4.145-3.76 6.944-9.319 11.99-.3873249.3479683-.9746751.3479683-1.362 0-5.559-5.046-9.319-7.845-9.319-11.99 0-3.117 2.04-5.749 5-5.749 3.464 0 5 3.305 5 3.305z"/><path id="Shape" d="m32 11.285c.3856996-.7580736 1.1501985-1.2492641 2-1.285.5647691.0229266 1.0961707.2736281 1.4729999.6949232.3768292.421295.5669505.9772561.5270001 1.5410768 0 1.612-1.5 2.7-3.727 4.662-.1565386.1361465-.3894614.1361465-.546 0-2.227-1.962-3.727-3.05-3.727-4.662-.0399504-.5638207.1501709-1.1197818.5270001-1.5410768.3768292-.4212951.9082308-.6719966 1.4729999-.6949232.8498015.0357359 1.6143004.5269264 2 1.285z"/><path id="Shape" d="m14 46.285c.3856996-.7580736 1.1501985-1.2492641 2-1.285.5647691.0229266 1.0961707.2736281 1.4729999.6949232.3768292.421295.5669505.9772561.5270001 1.5410768 0 1.612-1.5 2.7-3.727 4.662-.1565386.1361465-.3894614.1361465-.546 0-2.227-1.962-3.727-3.05-3.727-4.662-.03995042-.5638207.1501709-1.1197818.5270001-1.5410768.3768292-.4212951.9082308-.6719966 1.4729999-.6949232.8498015.0357359 1.6143004.5269264 2 1.285z"/></g><path id="Shape" d="m58 45c0 7.1797017-5.8202983 13-13 13s-13-5.8202983-13-13 5.8202983-13 13-13 13 5.8202983 13 13z" fill="#ffdc00"/><path id="Shape" d="m45 32c-.4993977.0024485-.9982338.0338344-1.494.094 6.5509597.7619288 11.4919294 6.31088 11.4919294 12.906s-4.9409697 12.1440712-11.4919294 12.906c.4958077.059713.9946178.0910973 1.494.094 7.1797017 0 13-5.8202983 13-13s-5.8202983-13-13-13z" fill="#fec108"/><circle id="Oval" cx="45" cy="45" fill="#fec108" r="9"/></g><g id="Icons_copy" fill="#000"><path id="Shape" d="m29 22c-1.9608436.0190733-3.8042501.937827-5 2.492-1.1957499-1.554173-3.0391564-2.4729267-5-2.492-3.421 0-6 2.9-6 6.749 0 4.1 3.078 6.849 7.737 11.015.6093333.544 1.246 1.116 1.91 1.716.7709886.6885252 1.9360114.6885252 2.707 0 .6633333-.6 1.2996667-1.1716667 1.909-1.715 4.659-4.165 7.737-6.92 7.737-11.016 0-3.849-2.579-6.749-6-6.749zm-3.071 16.273c-.612.547-1.253 1.121-1.939 1.726-.6666667-.6053333-1.3063333-1.1806667-1.919-1.726-4.41-3.943-7.071-6.323-7.071-9.524 0-2.707 1.72-4.749 4-4.749 1.7607547.0987293 3.3298648 1.143527 4.1 2.73.1645398.3484527.5146561.57136.9.573.3853439-.00164.7354602-.2245473.9-.573.7704681-1.5861824 2.339385-2.6308515 4.1-2.73 2.28 0 4 2.042 4 4.749 0 3.201-2.661 5.581-7.071 9.524z"/><path id="Shape" d="m31.305 17.982.759.665c.5346817.4711559 1.3363183.4711559 1.871 0l.76-.666c1.919-1.666 3.305-2.871 3.305-4.745.0812564-1.2183881-.575824-2.3667535-1.6673923-2.9140658-1.0915683-.54731235-2.4048713-.38689721-3.3326077.4070658-.9277364-.79396301-2.2410394-.95437815-3.3326077-.4070658-1.0915683.5473123-1.7486487 1.6956777-1.6673923 2.9140658 0 1.874 1.386 3.079 3.305 4.746zm-.305-5.982c.4680569.0348066.8845093.3100438 1.1.727.1685204.3353904.5106631.5481676.886.551.3812548.0001952.7309215-.2118409.907-.55.2168104-.4190973.6363004-.6949678 1.107-.728.2982996.0270452.5729419.1737076.7613362.4065629.1883943.2328554.2744892.5320643.2386638.8294371 0 .922-.85 1.7-2.616 3.238l-.384.335-.384-.335c-1.766-1.536-2.616-2.316-2.616-3.238-.0358254-.2973728.0502695-.5965817.2386638-.8294371.1883943-.2328553.4630366-.3795177.7613362-.4065629z"/><path id="Shape" d="m17 45c-.7318157-.0006871-1.4402791.2575477-2 .729-.9277364-.793963-2.2410394-.9543782-3.3326077-.4070658-1.0915683.5473123-1.74864872 1.6956777-1.6673923 2.9140658 0 1.874 1.386 3.079 3.305 4.746l.759.665c.5346817.4711559 1.3363183.4711559 1.871 0l.76-.666c1.919-1.666 3.305-2.871 3.305-4.745.039267-.8290376-.256517-1.6390367-.8207782-2.2476865s-1.3495876-.9648084-2.1792218-.9883135zm-1.616 6.474-.384.335-.384-.335c-1.766-1.536-2.616-2.316-2.616-3.238-.0358254-.2973728.0502695-.5965817.2386638-.8294371.1883943-.2328553.4630366-.3795177.7613362-.4065629.4680569.0348066.8845093.3100438 1.1.727.1685204.3353904.5106631.5481676.886.551h.014c.3771803-.0016234.7218287-.2138929.893-.55.2168104-.4190973.6363004-.6949678 1.107-.728.2982996.0270452.5729419.1737076.7613362.4065629.1883943.2328554.2744892.5320643.2386638.8294371 0 .922-.85 1.702-2.616 3.238z"/><path id="Shape" d="m46 36c-5.5228475 0-10 4.4771525-10 10s4.4771525 10 10 10 10-4.4771525 10-10c-.0060624-5.5203344-4.4796656-9.9939376-10-10zm0 18c-4.418278 0-8-3.581722-8-8s3.581722-8 8-8 8 3.581722 8 8c-.0049599 4.4162219-3.5837781 7.9950401-8 8z"/><path id="Shape" d="m46 32c-1.3549452.0009-2.7024967.1996639-4 .59v-21.59c-.0033061-2.76005315-2.2399468-4.99669388-5-5h-1v-1c-.0033061-2.76005315-2.2399468-4.99669388-5-5h-26c-2.76005315.00330612-4.99669388 2.23994685-5 5v42c.00330612 2.7600532 2.23994685 4.9966939 5 5h1v1c.00330612 2.7600532 2.23994685 4.9966939 5 5h26c.4865556-.008958.9691107-.0898331 1.432-.24 5.0169533 3.2302896 11.5303356 2.9240804 16.2221043-.7626386 4.6917686-3.6867191 6.5297621-9.9428915 4.5776711-15.5815022-1.952091-5.6386108-7.2648181-9.4191987-13.2317754-9.4158592zm-41 18c-1.65685425 0-3-1.3431458-3-3v-42c0-1.65685425 1.34314575-3 3-3h26c1.6568542 0 3 1.34314575 3 3v1h-23c-2.76005315.00330612-4.99669388 2.23994685-5 5v39zm6 6c-1.65685425 0-3-1.3431458-3-3v-42c0-1.65685425 1.34314575-3 3-3h26c1.6568542 0 3 1.34314575 3 3v22.37c-4.1380165 1.9544903-7.0557245 5.8125435-7.8094991 10.3264151-.7537747 4.5138715.7520606 9.1106155 4.0304991 12.3035849zm35 2c-6.627417 0-12-5.372583-12-12s5.372583-12 12-12 12 5.372583 12 12c-.0071648 6.624447-5.375553 11.9928352-12 12z"/><path id="Shape" d="m46 45c-.4851707-.000473-.9000069-.3491365-.9839455-.8269912-.0839386-.4778548.1872399-.9470217.6432053-1.1128119.4559653-.1657902.9651545.0196329 1.2077402.4398031.2843876.4596821.882589.61017 1.3506397.3397768s.6365131-.8637835.3803603-1.3397768c-.3620629-.6087671-.9282899-1.0694024-1.598-1.3v-.2c0-.5522847-.4477153-1-1-1s-1 .4477153-1 1v.184c-1.3765475.4848523-2.2026937 1.8918441-1.9553873 3.330178s1.49595 2.4885874 2.9553873 2.485822c.4851707.000473.9000069.3491365.9839455.8269912.0839386.4778548-.1872399.9470217-.6432053 1.1128119-.4559653.1657902-.9651545-.0196329-1.2077402-.4398031-.2843876-.4596821-.882589-.61017-1.3506397-.3397768s-.6365131.8637835-.3803603 1.3397768c.3625581.6091337.9295478 1.0698128 1.6 1.3v.2c0 .5522847.4477153 1 1 1s1-.4477153 1-1v-.184c1.3769108-.4849733 2.2030823-1.8925391 1.9552305-3.3311676-.2478517-1.4386286-1.4974125-2.4885802-2.9572305-2.4848324z"/></g></g></g></svg>